Coordinates
version=1
nRows=60
nColumns=12
inDegrees=yes

Units are S.I. units (second, meters, Newtons, ...)
Angles are in degrees

endheader
time	SC_y	SC_z	SC_x	AC_y	AC_z	AC_x	GH_y	GH_z	GH_yy	EL_x	PS_y
       0.0              -22.06          6.211          29.85          43.89          6.167         -5.832         -65.64          3.451          178.8          90.91          56.37
  0.005057              -22.07          6.215          29.85          43.89          6.166         -5.832         -65.65          3.448          178.7          90.92          56.38
   0.01011              -22.07          6.219          29.86           43.9          6.165         -5.833         -65.65          3.445          178.7          90.92          56.39
   0.01517              -22.08          6.223          29.86           43.9          6.165         -5.834         -65.66          3.441          178.6          90.92           56.4
   0.02023              -22.08          6.227          29.87          43.91          6.164         -5.834         -65.67          3.438          178.6          90.93           56.4
   0.02529              -22.09          6.232          29.87          43.91          6.163         -5.835         -65.68          3.434          178.5          90.93          56.41
   0.03034               -22.1          6.236          29.88          43.91          6.163         -5.836         -65.69           3.43          178.5          90.93          56.42
    0.0354              -22.11          6.242          29.88          43.92          6.162         -5.836          -65.7          3.425          178.4          90.94          56.43
   0.04046              -22.11          6.247          29.89          43.92          6.161         -5.837         -65.71           3.42          178.3          90.94          56.44
   0.04551              -22.12          6.253          29.89          43.93           6.16         -5.838         -65.73          3.415          178.3          90.95          56.45
   0.05057              -22.13          6.259           29.9          43.94          6.159         -5.839         -65.74           3.41          178.2          90.95          56.47
   0.05563              -22.14          6.266          29.91          43.94          6.158          -5.84         -65.76          3.404          178.1          90.96          56.48
   0.06069              -22.16          6.274          29.91          43.95          6.157         -5.841         -65.77          3.398          178.0          90.96          56.49
   0.06574              -22.17          6.282          29.92          43.96          6.156         -5.843         -65.79          3.391          177.9          90.97          56.51
    0.0708              -22.18          6.291          29.93          43.97          6.154         -5.844         -65.81          3.383          177.8          90.98          56.53
   0.07586               -22.2            6.3          29.94          43.98          6.153         -5.845         -65.83          3.375          177.7          90.99          56.54
   0.08091              -22.21           6.31          29.95          43.99          6.151         -5.847         -65.85          3.367          177.6          90.99          56.56
   0.08597              -22.23          6.321          29.96           44.0           6.15         -5.849         -65.88          3.357          177.4           91.0          56.59
   0.09103              -22.25          6.334          29.97          44.01          6.148          -5.85          -65.9          3.347          177.3          91.01          56.61
   0.09609              -22.27          6.347          29.99          44.02          6.146         -5.853         -65.93          3.335          177.1          91.02          56.63
    0.1011              -22.29          6.362           30.0          44.04          6.143         -5.855         -65.96          3.323          177.0          91.04          56.66
    0.1062              -22.31          6.378          30.02          44.05          6.141         -5.857          -66.0          3.309          176.8          91.05          56.69
    0.1113              -22.34          6.396          30.04          44.07          6.138          -5.86         -66.04          3.294          176.6          91.06          56.73
    0.1163              -22.37          6.415          30.06          44.09          6.135         -5.863         -66.08          3.277          176.3          91.08          56.77
    0.1214               -22.4          6.437          30.08          44.11          6.132         -5.866         -66.13          3.258          176.1           91.1          56.81
    0.1264              -22.44          6.462           30.1          44.13          6.128          -5.87         -66.18          3.237          175.8          91.12          56.85
    0.1315              -22.48          6.489          30.13          44.16          6.124         -5.874         -66.24          3.214          175.4          91.14          56.91
    0.1365              -22.53           6.52          30.16          44.19          6.119         -5.879         -66.31          3.188          175.1          91.16          56.97
    0.1416              -22.58          6.555           30.2          44.22          6.114         -5.884         -66.38          3.158          174.6          91.19          57.03
    0.1467              -22.64          6.594          30.24          44.26          6.108          -5.89         -66.47          3.124          174.2          91.22          57.11
    0.1517              -22.71           6.64          30.28          44.31          6.101         -5.897         -66.57          3.086          173.6          91.26          57.19
    0.1568              -22.79          6.691          30.34          44.36          6.093         -5.905         -66.68          3.041          173.0           91.3          57.29
    0.1618              -22.88          6.751           30.4          44.41          6.083         -5.914         -66.81           2.99          172.3          91.35          57.41
    0.1669              -22.99          6.821          30.47          44.48          6.073         -5.925         -66.96          2.931          171.4          91.41          57.54
    0.1719              -23.11          6.902          30.55          44.56           6.06         -5.937         -67.14          2.861          170.5          91.47           57.7
     0.177              -23.26          6.998          30.65          44.65          6.045         -5.952         -67.34           2.78          169.3          91.55          57.88
    0.1821              -23.43          7.112          30.76          44.76          6.028         -5.969         -67.59          2.682          167.9          91.64           58.1
    0.1871              -23.64          7.249           30.9           44.9          6.007          -5.99         -67.89          2.566          166.3          91.75          58.36
    0.1922              -23.89          7.414          31.07          45.06          5.981         -6.016         -68.25          2.425          164.3          91.89          58.68
    0.1972              -24.19          7.616          31.28          45.25           5.95         -6.046         -68.68          2.252          161.9          92.05          59.07
    0.2023              -24.57          7.865          31.53          45.49          5.912         -6.085         -69.23           2.04          158.9          92.25          59.54
    0.2073              -25.05          8.176          31.84          45.79          5.864         -6.132          -69.9          1.775          155.2          92.51          60.14
    0.2124              -25.64          8.568          32.24          46.17          5.804         -6.192         -70.75          1.441          150.5          92.82          60.89
    0.2175               -26.4          9.066          32.75          46.66          5.727         -6.268         -71.83          1.016          144.5          93.23          61.84
    0.2225              -27.36          9.703          33.39          47.27          5.629         -6.365         -73.21         0.4724          136.8          93.74          63.06
    0.2276              -28.61          10.52          34.22          48.07          5.503          -6.49         -74.98        -0.2252          127.0           94.4          64.63
    0.2326              -30.19          11.56          35.28          49.08          5.343          -6.65         -77.25         -1.116          114.5          95.25          66.63
    0.2377              -32.19          12.88          36.61          50.35          5.141         -6.851          -80.1         -2.236           98.7          96.31          69.15
    0.2427              -34.62          14.48          38.24           51.9          4.894         -7.095         -83.57         -3.602          79.48          97.61          72.21
    0.2478              -37.44          16.33          40.12           53.7          4.609         -7.379         -87.59         -5.184          57.21          99.11          75.77
    0.2529              -40.49          18.34          42.16          55.65            4.3         -7.686         -91.95         -6.898          33.08          100.7          79.61
    0.2579              -43.54          20.35           44.2          57.59          3.991         -7.993         -96.31         -8.611          8.961          102.4          83.46
     0.263              -46.36          22.21          46.08          59.39          3.705         -8.276         -100.3         -10.19         -13.32          103.9          87.02
     0.268              -48.79          23.81           47.7          60.94          3.459         -8.521         -103.8         -11.56         -32.54          105.2          90.08
    0.2731              -50.79          25.12          49.03          62.22          3.257         -8.722         -106.6         -12.68         -48.31          106.2           92.6
    0.2781              -52.37          26.16          50.09          63.23          3.096         -8.881         -108.9         -13.57         -60.85          107.1           94.6
    0.2832              -53.61          26.98          50.92          64.02           2.97         -9.006         -110.7         -14.27         -70.67          107.7          96.17
    0.2883              -54.58          27.62          51.57          64.64          2.872         -9.104         -112.1         -14.81         -78.32          108.3          97.39
    0.2933              -55.34          28.12          52.08          65.12          2.795          -9.18         -113.1         -15.24          -84.3          108.7          98.34
    0.2984              -55.93          28.51          52.47           65.5          2.735          -9.24         -114.0         -15.57          -89.0          109.0          99.09
